# xmcd CD database file
#
# Track frame offsets:
#	150
#	17512
#	29647
#	47698
#	63101
#	81910
#	98469
#	102392
#	121265
#	145820
#	163490
#	179014
#	195482
#
# Disc length: 2924 seconds
#
# Revision: 0
# Processed by: cddbd v1.4PL0 Copyright (c) Steve Scherf et al.
# Submitted via: CDex 1.40Release
#
DISCID=ac0b6a0d
DTITLE=Cisco - Wishing You Well From The Pink Motel
DYEAR=1900
DGENRE=Alt-Country
TTITLE0=Mr. Wright
TTITLE1=Pink Motel
TTITLE2=The Bum You Say I Am
TTITLE3=Crazy Ones
TTITLE4=I Hope Tomorrow Comes Real Soon
TTITLE5=Hard Times Again
TTITLE6=(untitled)
TTITLE7=Callin' Me Back
TTITLE8=Bad Man
TTITLE9=Long Way Home
TTITLE10=30 Years Crazy
TTITLE11=Someday
TTITLE12=Can't Take This Anymore
EXTD=
EXTT0=
EXTT1=
EXTT2=
EXTT3=
EXTT4=
EXTT5=
EXTT6=
EXTT7=
EXTT8=
EXTT9=
EXTT10=
EXTT11=
EXTT12=
PLAYORDER=
